<svg id="visual" viewBox="0 0 900 600" width="900" height="600" xmlns="http://www.w3.org/2000/svg" xmlns:xlink="http://www.w3.org/1999/xlink" version="1.1"><rect x="0" y="0" width="900" height="600" fill="#e8e8e8"></rect><defs><linearGradient id="grad1_0" x1="33.3%" y1="100%" x2="100%" y2="0%"><stop offset="20%" stop-color="#c9c8c8" stop-opacity="1"></stop><stop offset="80%" stop-color="#c9c8c8" stop-opacity="1"></stop></linearGradient></defs><defs><linearGradient id="grad1_1" x1="33.3%" y1="100%" x2="100%" y2="0%"><stop offset="20%" stop-color="#c9c8c8" stop-opacity="1"></stop><stop offset="80%" stop-color="#e8e8e8" stop-opacity="1"></stop></linearGradient></defs><defs><linearGradient id="grad2_0" x1="0%" y1="100%" x2="66.7%" y2="0%"><stop offset="20%" stop-color="#c9c8c8" stop-opacity="1"></stop><stop offset="80%" stop-color="#c9c8c8" stop-opacity="1"></stop></linearGradient></defs><defs><linearGradient id="grad2_1" x1="0%" y1="100%" x2="66.7%" y2="0%"><stop offset="20%" stop-color="#e8e8e8" stop-opacity="1"></stop><stop offset="80%" stop-color="#c9c8c8" stop-opacity="1"></stop></linearGradient></defs><g transform="translate(900, 600)"><path d="M-486.7 0C-453 -52.2 -419.3 -104.4 -401 -166.1C-382.7 -227.8 -379.8 -299 -344.2 -344.2C-308.5 -389.3 -240 -408.3 -177.2 -427.8C-114.3 -447.2 -57.2 -467 0 -486.7L0 0Z" fill="#d8d8d8"></path><path d="M-243.4 0C-226.5 -26.1 -209.6 -52.2 -200.5 -83C-191.3 -113.9 -189.9 -149.5 -172.1 -172.1C-154.3 -194.7 -120 -204.2 -88.6 -213.9C-57.2 -223.6 -28.6 -233.5 0 -243.4L0 0Z" fill="#c9c8c8"></path></g><g transform="translate(0, 0)"><path d="M486.7 0C463.7 62.7 440.6 125.5 402.8 166.8C365 208.2 312.5 228.2 278.6 278.6C244.7 329 229.6 409.9 186.3 449.7C143 489.5 71.5 488.1 0 486.7L0 0Z" fill="#d8d8d8"></path><path d="M243.4 0C231.8 31.4 220.3 62.7 201.4 83.4C182.5 104.1 156.2 114.1 139.3 139.3C122.4 164.5 114.8 205 93.1 224.8C71.5 244.7 35.7 244.1 0 243.4L0 0Z" fill="#c9c8c8"></path></g></svg>