<svg xmlns="http://www.w3.org/2000/svg" xml:space="preserve" width="2800" height="2800"><path d="M0 0h21000v21000H0V0" style="fill:none;fill-opacity:1;fill-rule:evenodd;stroke:none" transform="matrix(.13333 0 0 -.13333 0 2800)"/><path d="M10717.7 6396.9V4795.8l978.5 1266.2v3142.6h967.3V7312.1l978.5 1266.2V12496.1h-978.5v-2311.7h-967.3v2311.7h-978.5V6396.9M10283.6 9342.3v3153.8H7358v-1973.2l979.74-979.7 966.1-966.1v-914l-966.1 1248.8v272.9L7358 10164.5V8578.3L9303.84 6062l979.76-1266.2v4186.8l-979.76 979.8-966.1 966.1v3.7l-12.4 11.2 12.4 12.4v560.5h966.1V10322l979.76-979.7M12838.4 12928.9c21 50.8 40.9 95.5 52 121.5 34.8 76.9 64.5 135.2 101.7 205.9 86.9 165 155.1 285.3 263 440.3 47.1 74.4 104.1 150 159.9 226.9 57.1 78.2 110.4 145.1 171.2 215.8 60.8 70.7 132.7 147.6 179.8 207.1 107.9-4.9 177.4-27.3 260.5 55.8 141.3 162.5-47.2 421.7-282.8 291.5-49.6-28.5-93-75.7-98-148.8-6.2-86.9 43.4-125.3 74.4-168.7-31-65.7-298.8-311.3-343.5-346-155-119.1-228.2-169.9-447.7-248.1-425.4-57-533.3 403.1-478.7 679.7 2.5 12.4 1.2 26 0 40.9 17.3 126.5 85.6 549.4 140.1 628.8 103 0 153.8 1.2 225.7 43.4 45.9 26 96.8 88 112.9 140.1 93 306.3-408 450.2-543.2 166.2-79.4-166.2 40.9-260.4 132.7-327.4-114.1-349.7-776.4-1067.8-1190.6-1062.9-280.3 28.6-494.8 532.1-558.1 714.4-29.7 84.3-59.5 179.8-83 265.4-29.8 107.9-130.3 456.4-126.6 549.4 306.4 83.1 334.9 322.4 208.4 467.5-68.2 80.7-119.1 76.9-173.6 115.4-109.2 0-174.9 7.4-270.4-48.4-176.1-100.4-191-321.2-63.2-440.2 112.8-106.7 179.8-52.1 186-120.3 7.4-64.5-95.5-429.2-126.5-540.8-117.8-338.5-253-985.9-780.08-959.9-65.73 3.8-235.64 68.2-282.76 115.4-44.65 52.1-184.79 115.3-239.36 200.9-1.24 1.2-6.2 1.2-7.44 6.2-2.48 6.2-478.71 623.8-517.16 737.9 90.54 70.7 208.36 153.8 132.7 324.9-128.98 286.5-634.97 146.4-541.95-162.5 48.36-162.4 190.98-183.5 337.33-184.7 45.88-69.5 140.14-537 138.9-652.4-1.24-219.5 37.2-605.2-277.81-693.2-255.47-72-586.6 178.5-749.06 333.6-48.37 45.9-208.36 198.4-241.84 256.7 33.48 45.9 80.61 78.1 74.41 168.7-9.92 140.1-171.14 213.3-307.56 162.4-176.11-65.7-174.87-271.6-13.65-348.5 75.65-34.7 117.82-17.3 200.91-12.4 62.01-83.1 146.34-161.2 214.55-249.2l203.4-264.2 189.74-284c73.17-116.6 219.51-388.2 321.21-620.1h4663.12" style="fill:#fff;fill-opacity:1;fill-rule:evenodd;stroke:none" transform="matrix(.13333 0 0 -.13333 0 2800)"/></svg>